HIERARCHY
ROOT Hips
{
	OFFSET 0.000000 0.000000 0.000000 
	CHANNELS 6 Xposition Yposition Zposition Zrotation Yrotation Xrotation
	JOINT LeftUpLeg
	{
		OFFSET 1.363060 -1.794630 0.839290 
		CHANNELS 3 Zrotation Yrotation Xrotation
		JOINT LeftLeg
		{
			OFFSET 2.448110 -6.726130 0.000000 
			CHANNELS 3 Zrotation Yrotation Xrotation
			JOINT LeftFoot
			{
				OFFSET 2.562200 -7.039590 0.000000 
				CHANNELS 3 Zrotation Yrotation Xrotation
				JOINT LeftToeBase
				{
					OFFSET 0.157640 -0.433110 2.322550 
					CHANNELS 3 Zrotation Yrotation Xrotation
					End Site
					{
						OFFSET 0.000000 0.000000 0.000000 
					}
				}
			}
		}
	}
	JOINT RightUpLeg
	{
		OFFSET -1.305520 -1.794630 0.839290 
		CHANNELS 3 Zrotation Yrotation Xrotation
		JOINT RightLeg
		{
			OFFSET -2.542530 -6.985550 0.000000 
			CHANNELS 3 Zrotation Yrotation Xrotation
			JOINT RightFoot
			{
				OFFSET -2.568260 -7.056230 0.000000 
				CHANNELS 3 Zrotation Yrotation Xrotation
				JOINT RightToeBase
				{
					OFFSET -0.164730 -0.452590 2.363150 
					CHANNELS 3 Zrotation Yrotation Xrotation
					End Site
					{
						OFFSET 0.000000 0.000000 0.000000 
					}
				}
			}
		}
	}
	JOINT Spine
	{
		OFFSET 0.028270 2.035590 -0.193380 
		CHANNELS 3 Zrotation Yrotation Xrotation
		JOINT Spine1
		{
			OFFSET 0.056720 2.048850 -0.042750 
			CHANNELS 3 Zrotation Yrotation Xrotation
			JOINT Neck1
			{
				OFFSET -0.054170 1.746240 0.172020 
				CHANNELS 3 Zrotation Yrotation Xrotation
				JOINT Head
				{
					OFFSET 0.104070 1.761360 -0.123970 
					CHANNELS 3 Zrotation Yrotation Xrotation
					End Site
					{
						OFFSET 0.000000 0.000000 0.000000 
					}
				}
			}
			JOINT LeftArm
			{
				OFFSET 3.362410 1.200890 -0.311210 
				CHANNELS 3 Zrotation Yrotation Xrotation
				JOINT LeftForeArm
				{
					OFFSET 4.983000 -0.000000 -0.000000 
					CHANNELS 3 Zrotation Yrotation Xrotation
					JOINT LeftHand
					{
						OFFSET 3.483560 -0.000000 -0.000000 
						CHANNELS 3 Zrotation Yrotation Xrotation
						JOINT LeftHandIndex1
						{
							OFFSET 0.715260 -0.000000 -0.000000 
							CHANNELS 3 Zrotation Yrotation Xrotation
							End Site
							{
								OFFSET 0.000000 0.000000 0.000000 
							}
						}
					}
				}
			}
			JOINT RightArm
			{
				OFFSET -3.136600 1.374050 -0.404650 
				CHANNELS 3 Zrotation Yrotation Xrotation
				JOINT RightForeArm
				{
					OFFSET -5.241900 -0.000000 -0.000000 
					CHANNELS 3 Zrotation Yrotation Xrotation
					JOINT RightHand
					{
						OFFSET -3.444170 -0.000000 -0.000000 
						CHANNELS 3 Zrotation Yrotation Xrotation
						JOINT RightHandIndex1
						{
							OFFSET -0.622530 -0.000000 -0.000000 
							CHANNELS 3 Zrotation Yrotation Xrotation
							End Site
							{
								OFFSET 0.000000 0.000000 0.000000 
							}
						}
					}
				}
			}
		}
	}
}
MOTION
Frames: 15
Frame Time: 0.041667
-34.561029 16.830746 0.761307 125.482106 75.544224 130.163819 -23.491017 -0.167983 -3.855990 0.385978 13.867622 34.943548 2.913579 -2.440916 -9.560691 1.202500 -6.957500 -19.589400 0.295563 -7.181290 -29.887978 -9.132130 -17.606873 56.539366 -39.885600 10.603705 166.770119 -1.627400 -8.042500 22.843100 0.115791 -5.485375 -3.125166 1.615597 -2.840468 1.156140 7.890984 0.374637 4.863546 2.380000 0.469200 11.066000 -85.232593 -18.176958 50.914389 57.770461 -52.961071 -36.997540 -2.083378 1.888546 2.513833 -7.125000 0.000000 0.000000 69.257059 -39.641389 50.944882 -47.982436 54.176633 -25.760543 1.844819 0.989447 -16.486384 7.125000 0.000000 0.000000 
-33.840162 16.892402 0.742302 121.950941 75.378269 126.339200 -24.213507 0.509604 -0.534771 -0.230250 12.943424 32.406787 2.327130 -1.413350 -7.466808 1.653000 -8.102400 -23.025600 -0.872603 -5.310592 -32.537003 -9.982142 -18.013230 58.922541 -39.790624 8.696841 166.343349 -1.271800 -7.147600 20.153500 0.156239 -6.022401 -3.301655 2.228163 -3.101600 0.299060 7.841606 1.146102 5.096529 2.348000 0.800800 11.339900 -85.032087 -19.323336 50.723327 60.216818 -53.466590 -39.126921 -2.118046 1.863445 1.466671 -7.125000 0.000000 0.000000 66.247345 -42.501040 52.377180 -48.681613 54.242764 -26.496268 1.769394 1.041715 -15.672899 7.125000 0.000000 0.000000 
-33.112667 16.954390 0.747385 118.892489 74.946232 123.498249 -24.833260 1.068120 2.229055 -0.657086 12.175960 30.376505 2.036639 -1.016952 -5.415214 1.957100 -8.776100 -25.097400 -1.852188 -3.092235 -35.373719 -10.919271 -18.528152 61.655171 -39.744786 7.365463 166.248100 -1.002700 -6.372000 17.867700 0.216053 -6.480817 -3.315699 2.942935 -3.459166 0.906369 7.761884 1.929159 5.328761 2.259600 1.144300 11.505900 -84.319618 -21.338641 50.660662 62.474306 -53.960018 -41.143443 -2.175243 1.805545 0.251100 -7.125000 0.000000 0.000000 63.119457 -44.197317 54.178336 -48.929772 54.325717 -26.972528 1.728367 1.115906 -15.126130 7.125000 0.000000 0.000000 
-32.365613 17.020797 0.760644 117.059876 74.525051 121.852262 -25.134113 1.451570 4.948443 -0.980533 11.477611 28.652539 1.691121 -0.444579 -2.737712 2.380700 -9.617700 -27.747500 -2.682006 -1.160766 -38.212489 -12.110120 -19.125153 65.144068 -39.717586 6.215760 166.351065 -0.718300 -5.415900 15.098600 0.298358 -7.025813 -3.357057 3.592867 -3.853710 1.350074 7.629693 2.715817 5.611859 2.106500 1.482900 11.698100 -83.206272 -22.826354 50.653885 65.025850 -54.490117 -43.428055 -2.232293 1.723896 -0.773891 -7.125000 0.000000 0.000000 59.749613 -45.803766 56.403001 -49.265104 54.418730 -27.496657 1.656768 1.217967 -15.875926 7.125000 0.000000 0.000000 
-31.606074 17.089193 0.773462 115.787846 74.232414 120.713462 -25.162808 1.862660 7.572286 -1.223910 10.828390 27.140616 1.329052 0.290270 0.508295 3.123600 -10.892400 -31.917900 -3.453520 0.574629 -40.898263 -13.566032 -19.752246 69.396079 -39.724456 5.749737 166.603902 -0.669800 -5.233700 14.576300 0.436884 -7.517378 -3.447899 4.652246 -4.235300 1.424664 7.574149 3.601025 5.950423 2.089200 1.843200 11.931000 -82.240812 -23.799989 50.868576 67.944086 -55.058236 -45.991029 -2.282182 1.654383 -1.971408 -7.125000 0.000000 0.000000 56.098199 -47.673138 58.718660 -50.145364 54.618779 -28.472701 1.582923 1.333157 -16.744099 7.125000 0.000000 0.000000 
-30.841783 17.169854 0.797218 115.414656 74.209945 120.380352 -24.563689 2.238672 10.194298 -1.472080 10.087513 25.461494 1.435433 -0.025346 4.427374 2.585200 -9.991300 -28.948400 -3.671051 2.041377 -42.997671 -16.285135 -20.686591 77.873521 -45.359956 42.741408 139.751251 -0.553200 -4.764400 13.237700 0.545646 -7.954411 -3.447367 5.114467 -4.588261 1.909389 7.390890 4.284702 6.094085 1.828900 2.140800 11.934500 -80.674728 -24.828785 51.103372 71.082670 -55.626605 -48.785137 -2.340036 1.571466 -3.506822 -7.125000 0.000000 0.000000 53.013621 -49.029150 60.807394 -50.862589 54.871578 -29.297114 1.530015 1.407224 -17.289271 7.125000 0.000000 0.000000 
-30.057162 17.252504 0.819096 115.552728 74.401992 120.449609 -23.630883 2.434649 12.950499 -1.705084 9.292610 23.602531 0.922199 1.869645 10.158936 1.409700 -7.509700 -21.234500 -3.455486 3.066690 -43.521719 -18.516215 -21.182922 83.719516 7.454430 61.256060 79.705377 -0.363000 -3.870500 10.712600 0.657824 -8.356112 -3.398595 5.370516 -4.977210 2.801168 7.143402 5.004003 6.481838 1.542300 2.445900 12.260500 -79.098251 -25.621302 51.048486 74.611256 -56.223735 -51.956926 -2.364729 1.482262 -4.690158 -7.125000 0.000000 0.000000 49.961753 -49.892567 62.929338 -51.395809 55.094964 -29.979138 1.483966 1.477543 -17.825672 7.125000 0.000000 0.000000 
-29.254087 17.335817 0.830477 115.515960 74.402087 120.114835 -22.887621 2.758333 15.674640 -1.838076 8.581448 21.844465 0.473613 4.325637 15.846093 0.966000 -6.257600 -17.533700 -3.741147 3.888181 -43.749979 -16.197460 -20.908505 80.494795 -2.058442 34.663869 25.837973 -0.489500 -4.486200 12.448600 0.794481 -8.743074 -3.452352 5.825517 -5.295873 2.981772 6.603798 5.700840 6.974139 0.908900 2.701400 12.828000 -78.134583 -25.573192 50.916178 78.539304 -56.781986 -55.425205 -2.342781 1.435425 -5.122014 -7.125000 0.000000 0.000000 46.601491 -51.222694 65.354174 -52.170763 55.235220 -30.828036 1.439781 1.553259 -18.375535 7.125000 0.000000 0.000000 
-28.445378 17.420898 0.828709 115.312226 74.108004 119.621330 -22.298147 3.331528 18.111642 -1.837897 8.070384 20.395963 0.213274 7.372026 22.071144 0.022300 -0.965000 -2.652500 -3.986468 3.784645 -42.930430 -14.304321 -20.345611 71.478755 1.288367 -6.533551 5.424604 -0.460500 -4.352800 12.071500 0.863556 -9.034776 -3.382454 5.924517 -5.612473 3.936544 6.361288 6.340696 7.258713 0.673000 2.959700 12.963100 -77.047605 -25.819711 51.223480 81.989484 -57.271721 -58.408816 -2.338367 1.387289 -6.096465 -7.125000 0.000000 0.000000 44.254766 -51.786580 66.715184 -52.418121 55.396877 -31.270125 1.404361 1.572200 -18.649078 7.125000 0.000000 0.000000 
-27.673353 17.505647 0.848819 116.203541 74.789858 120.392291 -20.440586 3.459207 20.148844 -1.801718 7.589951 19.053484 -0.207017 10.058018 24.524150 0.007600 0.564300 1.550600 -3.066547 4.335158 -42.276172 -11.587329 -19.553509 63.594777 1.590956 -7.573094 5.335984 -0.511400 -4.583700 12.725000 0.989339 -9.283363 -3.486147 6.150325 -5.751229 3.450449 6.226695 6.913962 7.493164 0.549000 3.203700 13.157200 -76.118276 -24.973090 51.705127 85.618169 -57.601595 -61.455094 -2.311762 1.432160 -6.631402 -7.125000 0.000000 0.000000 41.212294 -53.295652 69.171116 -53.853196 55.676471 -32.558613 1.377239 1.546723 -18.576704 7.125000 0.000000 0.000000 
-26.820667 17.584098 0.788931 113.107322 71.427029 116.340055 -24.792717 3.930056 24.224594 -1.913065 7.234926 18.233165 -0.099377 9.270216 23.599786 0.185900 -2.777000 -7.658400 -6.818112 1.949709 -39.914724 -9.118134 -17.624087 55.054208 1.309306 -7.120353 7.786969 -0.471400 -4.403600 12.215000 0.861697 -10.066655 -3.451856 6.100265 -6.179953 4.384430 6.128732 7.439784 7.850344 0.379700 3.461300 13.301300 -75.231599 -24.176455 51.977096 89.256003 -57.989031 -64.493427 -2.265940 1.498798 -6.889748 -7.125000 0.000000 0.000000 38.703157 -53.608556 71.059162 -55.482828 56.216449 -34.118629 1.287560 1.658060 -18.641024 7.125000 0.000000 0.000000 
-26.104441 17.653157 0.836223 117.411313 74.250646 121.000221 -20.336378 2.949992 25.358078 -1.851472 6.952970 17.901620 -0.314743 9.755214 23.492322 0.366400 -3.888300 -10.762600 -3.372690 3.091923 -39.435112 -6.508473 -16.394064 47.291586 1.894656 -9.137989 8.363871 -0.375200 -3.934200 10.891600 1.115746 -10.142552 -3.468571 5.889517 -6.328674 4.313360 5.886563 8.019682 8.080950 0.109600 3.719400 13.589500 -74.468969 -23.320682 51.967106 92.586990 -58.116002 -67.279834 -2.227502 1.545723 -6.488290 -7.125000 0.000000 0.000000 36.855249 -53.797892 72.418735 -56.495135 56.412150 -35.033393 1.251374 1.595299 -18.231963 7.125000 0.000000 0.000000 
-25.301809 17.705311 0.786942 116.829586 72.818804 119.944936 -23.158408 1.954235 27.866739 -1.621119 7.610831 19.562610 -0.878217 10.669233 21.498718 0.470900 -4.401100 -12.207800 -4.834227 1.136147 -37.563060 -4.447510 -14.083061 39.332558 1.627126 -8.751005 9.943761 -0.535700 -4.689900 13.026100 1.076708 -10.682174 -3.402436 5.834457 -6.648781 5.091468 6.337174 8.548495 8.109536 0.765100 3.974900 13.049100 -73.835070 -22.407483 52.175869 95.375827 -58.295030 -69.554752 -2.225416 1.535220 -6.464852 -7.125000 0.000000 0.000000 35.181015 -53.485779 73.333501 -57.859126 56.870307 -36.355749 1.191295 1.587545 -17.887106 7.125000 0.000000 0.000000 
-24.525032 17.741884 0.755783 118.242928 73.069984 121.138580 -23.687252 0.901349 29.513164 -1.207129 8.422716 21.754520 -1.583325 12.292409 20.122391 0.458100 -4.341900 -12.040600 -4.405512 0.068970 -35.973903 -2.743455 -12.027212 32.428920 1.567597 -9.052378 11.478285 -0.239500 -3.149300 8.694700 1.176589 -10.932075 -3.477673 6.064992 -6.765011 4.686011 6.371287 8.882330 8.147624 0.941700 4.092500 12.911700 -74.018958 -20.852359 52.946850 98.040783 -58.257918 -71.609723 -2.231522 1.530188 -6.736173 -7.125000 0.000000 0.000000 33.816311 -53.746392 73.941086 -58.753564 56.992505 -37.208104 1.137981 1.543420 -17.398986 7.125000 0.000000 0.000000 
-23.761847 17.764536 0.727054 119.539292 73.598203 122.357569 -23.614579 0.406022 30.323059 -0.560058 9.502950 24.836703 -2.207344 13.772188 19.104490 0.504700 -4.554100 -12.641100 -3.801846 -0.727355 -34.580059 -1.333782 -9.907476 25.705057 1.869793 -10.380499 13.026637 -0.362800 -3.869500 10.709800 1.256202 -11.012489 -3.492607 5.938362 -6.812509 4.649324 6.210191 9.009158 8.074745 0.805000 4.136900 12.697600 -74.318833 -19.374028 53.855842 99.614732 -58.259458 -72.732130 -2.222071 1.550209 -7.096819 -7.125000 0.000000 0.000000 33.882326 -53.642559 73.214121 -58.712281 56.999760 -37.247806 1.132075 1.481088 -16.711435 7.125000 0.000000 0.000000 
